<svg width="78" height="69" viewBox="0 0 78 69" fill="none" xmlns="http://www.w3.org/2000/svg">
<path fill-rule="evenodd" clip-rule="evenodd" d="M0.434663 32.6837C-0.0667628 33.5522 -0.0667625 34.6222 0.434663 35.4907L18.4632 66.717C18.9646 67.5855 19.8913 68.1205 20.8941 68.1205H56.9511C57.954 68.1205 58.8806 67.5855 59.382 66.717L63.2948 59.9399H48.7472V59.9161H48.5673L51.2009 55.3547H51.2014L63.4801 34.0872L51.2014 12.8198H41.1799L36.5328 20.869H44.9336C45.9364 20.869 46.8631 21.404 47.3645 22.2725L53.3754 32.6837C53.8769 33.5522 53.8769 34.6222 53.3754 35.4907L49.8212 41.647L49.8451 41.6608L41.939 55.3547H41.9395L39.306 59.9161H25.631C24.6281 59.9161 23.7014 59.381 23.2 58.5126L9.90835 35.4907C9.40693 34.6222 9.40693 33.5522 9.90835 32.6837L21.3885 12.7995L11.9148 12.7995L0.434663 32.6837ZM14.5483 8.23814L29.2899 8.23814L26.6446 12.8198H26.6439L14.3651 34.0872L26.6439 55.3547H36.6719L41.3191 47.3055H32.9117C31.9088 47.3055 30.9821 46.7705 30.4807 45.902L24.4698 35.4907C23.9683 34.6222 23.9683 33.5522 24.4698 32.6837L28.5454 25.6245L28.5264 25.6135L35.9129 12.8198H35.9122L38.5457 8.25841H52.2143C53.2171 8.25841 54.1438 8.79342 54.6452 9.66192L67.9369 32.6837C68.4383 33.5522 68.4383 34.6222 67.9369 35.4907L56.4547 55.3785H65.9284L77.4105 35.4907C77.912 34.6222 77.912 33.5522 77.4105 32.6837L59.382 1.45746C58.8806 0.58897 57.9539 0.0539551 56.9511 0.0539551H20.8941C19.8913 0.0539551 18.9646 0.58897 18.4632 1.45746L14.5483 8.23814ZM33.9246 42.7441L28.9265 34.0872L33.9246 25.4304H43.9207L48.9187 34.0872L43.9207 42.7441H33.9246Z" fill="white"/>
</svg>
